<svg xmlns="http://www.w3.org/2000/svg" width="160" height="80" viewBox="0 0 500 500" version="1.1"><path d="M 84.500 107.067 C 75.096 108.337, 66.053 112.811, 62.726 117.837 C 59.890 122.123, 58.012 127.961, 58.009 132.500 C 58.007 136.286, 61.199 141.611, 64.004 142.501 C 66.029 143.144, 66.054 143.283, 64.455 145.050 C 61.447 148.374, 63.254 151.254, 71.016 155.509 C 84.055 162.656, 89.203 170.206, 98.177 195.344 C 103.365 209.874, 108.774 221.693, 114.268 230.500 C 119.869 239.479, 129.677 251.497, 134.640 255.460 L 139.500 259.343 135.500 255.024 C 133.300 252.649, 132.039 251.009, 132.697 251.380 C 133.400 251.775, 136.379 249.622, 139.911 246.166 C 143.219 242.929, 146.115 240.779, 146.344 241.390 C 146.574 242, 147.254 241.262, 147.856 239.750 C 148.458 238.237, 149.637 237, 150.475 237 C 151.314 237, 152 236.475, 152 235.833 C 152 232.471, 153.404 236.798, 154.077 242.234 C 154.597 246.439, 154.781 242.250, 154.636 229.500 C 154.391 207.904, 153.319 203.741, 147.323 201.101 C 144.212 199.731, 144.188 199.669, 146.136 198.091 C 148.679 196.032, 149.604 189.360, 148.014 184.543 C 147.344 182.513, 144.204 177.398, 141.035 173.176 C 131.990 161.126, 131.794 160.547, 130.813 143 C 129.713 123.336, 128.342 118.304, 122.787 113.549 C 120.477 111.572, 116.318 109.279, 113.544 108.453 C 107.035 106.514, 93.404 105.864, 84.500 107.067 M 256.753 114.728 C 251.155 115.314, 250.003 118.827, 249.906 135.607 C 249.852 144.843, 249.749 145.334, 248.355 143 C 247.534 141.625, 247.120 141.329, 247.435 142.343 C 247.751 143.356, 248.285 145.289, 248.624 146.636 C 249.431 149.852, 251.555 149.046, 251.309 145.618 C 251.203 144.153, 251.541 143.216, 252.059 143.536 C 252.576 143.856, 253.061 145.329, 253.136 146.809 C 253.253 149.115, 253.334 149.183, 253.701 147.284 C 253.937 146.065, 255.563 143.912, 257.315 142.498 C 263.561 137.459, 265.160 136, 264.439 136 C 263.532 136, 268.354 131.475, 270.745 130.083 C 272.255 129.203, 272.125 129.057, 269.809 129.030 C 265.664 128.984, 265.559 127.355, 269.445 123.353 C 271.400 121.340, 273 119.360, 273 118.954 C 273 118.547, 273.667 117.958, 274.481 117.646 C 275.512 117.250, 276.245 118.053, 276.891 120.289 C 277.402 122.055, 277.860 122.857, 277.910 122.071 C 277.959 121.285, 277.460 119.148, 276.799 117.321 L 275.598 114 268.049 114.168 C 263.897 114.261, 258.814 114.513, 256.753 114.728 M 280.070 115.250 C 280.109 115.938, 280.566 117.400, 281.086 118.500 C 281.879 120.179, 281.947 120.068, 281.512 117.814 C 281.046 115.397, 281.321 115.087, 284.247 114.724 C 287.454 114.326, 287.446 114.318, 283.750 114.160 C 281.300 114.055, 280.024 114.433, 280.070 115.250 M 291.250 115.689 C 292.212 115.941, 293.788 115.941, 294.750 115.689 C 295.712 115.438, 294.925 115.232, 293 115.232 C 291.075 115.232, 290.288 115.438, 291.250 115.689 M 225.750 123.090 C 221.448 124.787, 218 126.745, 218 127.491 C 218 128.230, 219.549 133.484, 221.442 139.167 C 223.335 144.850, 225.782 152.875, 226.881 157 C 227.980 161.125, 228.906 163.686, 228.939 162.691 C 228.973 161.696, 229.451 161.161, 230.003 161.502 C 230.555 161.843, 232.952 161.830, 235.331 161.473 C 239.604 160.832, 239.694 160.735, 242.870 153.350 C 247.456 142.683, 247.388 138.402, 242.472 128.500 C 237.710 118.909, 236.960 118.666, 225.750 123.090 M 305.071 120.500 C 305.071 121.050, 305.714 122.625, 306.500 124 C 307.286 125.375, 307.929 126.050, 307.929 125.500 C 307.929 124.950, 307.286 123.375, 306.500 122 C 305.714 120.625, 305.071 119.950, 305.071 120.500 M 206.180 131.494 C 203.804 132.852, 200.524 134.915, 198.892 136.077 C 195.610 138.414, 195.596 138.102, 199.465 149 C 204.160 162.228, 205.978 169.692, 208.478 186 C 209.413 192.103, 209.822 193.372, 209.926 190.500 C 210.006 188.300, 210.761 185.375, 211.605 184 C 212.634 182.321, 212.914 182.157, 212.456 183.500 C 210.833 188.255, 210.699 189.304, 211.804 188.621 C 213.650 187.480, 214.398 181.184, 212.901 179.381 C 211.781 178.031, 211.859 177.576, 213.405 176.446 C 214.411 175.710, 216.805 173.678, 218.726 171.931 C 221.455 169.447, 221.921 168.552, 220.859 167.835 C 219.844 167.149, 220.007 166.991, 221.500 167.208 C 222.600 167.369, 223.822 168.400, 224.215 169.500 C 224.608 170.600, 224.681 169.475, 224.377 167 C 223.086 156.492, 213.624 128.978, 211.313 129.012 C 210.866 129.019, 208.556 130.136, 206.180 131.494 M 284.141 130 C 284.141 130.825, 284.527 132.400, 285 133.500 C 285.542 134.761, 285.859 134.945, 285.859 134 C 285.859 133.175, 285.473 131.600, 285 130.500 C 284.458 129.239, 284.141 129.055, 284.141 130 M 180.961 149.040 C 177.142 152.912, 173.727 157.240, 173.371 158.657 C 172.967 160.269, 173.689 164.285, 175.296 169.368 C 178.882 180.707, 180.703 189.701, 182.003 202.500 C 183.218 214.462, 184.323 219.363, 183.524 209.250 C 183.128 204.238, 183.317 203, 184.476 203 C 185.272 203, 186.786 202.073, 187.842 200.939 L 189.762 198.878 191.021 202.189 C 191.949 204.630, 192.393 205.040, 192.713 203.750 C 192.951 202.787, 193.789 202, 194.573 202 C 195.358 202, 196 201.580, 196 201.067 C 196 200.554, 196.810 199.878, 197.801 199.563 C 198.791 199.249, 200.246 197.306, 201.033 195.246 L 202.465 191.500 203.117 195.500 C 203.476 197.700, 203.568 196.125, 203.321 192 C 202.756 182.569, 199.758 167.052, 196.365 156 C 193.152 145.533, 191.401 142, 189.426 142 C 188.589 142, 184.779 145.168, 180.961 149.040 M 348.272 156 C 348.272 158.475, 348.467 159.488, 348.706 158.250 C 348.944 157.012, 348.944 154.988, 348.706 153.750 C 348.467 152.512, 348.272 153.525, 348.272 156 M 285.232 168 C 285.232 169.925, 285.438 170.713, 285.689 169.750 C 285.941 168.787, 285.941 167.213, 285.689 166.250 C 285.438 165.287, 285.232 166.075, 285.232 168 M 163.205 172.043 C 161.598 174.617, 153.209 180, 150.804 180 C 148.477 180, 148.527 180.662, 151.337 187.126 C 155.895 197.610, 157.500 207.995, 157.500 227 C 157.500 236.625, 157.638 242.588, 157.807 240.250 C 157.977 237.912, 158.427 236.001, 158.807 236.002 C 159.188 236.003, 159.395 233.190, 159.267 229.752 C 159.108 225.488, 159.312 224.136, 159.909 225.500 C 160.714 227.338, 160.843 227.358, 161.500 225.750 C 161.893 224.787, 162.741 224, 163.385 224 C 164.750 224, 167.264 221.258, 168.469 218.456 C 169.523 216.004, 169.666 216.689, 170.579 228.500 C 170.962 233.450, 171.465 236.969, 171.697 236.320 C 172.087 235.232, 170.574 215.389, 167.677 183.580 C 167.030 176.474, 166.046 170.510, 165.492 170.327 C 164.938 170.144, 163.909 170.916, 163.205 172.043 M 286.232 182 C 286.232 183.925, 286.438 184.713, 286.689 183.750 C 286.941 182.787, 286.941 181.213, 286.689 180.250 C 286.438 179.287, 286.232 180.075, 286.232 182 M 120.917 183.601 C 117.504 187.713, 120.881 208.099, 126.431 216.891 C 129.096 221.112, 130.634 222.490, 133.750 223.445 C 137.687 224.652, 136.637 219.751, 131.897 214.792 C 126.330 208.968, 125 206.947, 125 204.313 C 125 201.897, 127.610 200, 130.934 200 C 133.120 200, 133.575 199.023, 132.123 197.450 C 131.641 196.928, 130.510 194.230, 129.611 191.455 C 126.782 182.728, 123.844 180.074, 120.917 183.601 M 227.232 186 C 227.232 187.925, 227.438 188.713, 227.689 187.750 C 227.941 186.787, 227.941 185.213, 227.689 184.250 C 227.438 183.287, 227.232 184.075, 227.232 186 M 354.232 186 C 354.232 187.925, 354.438 188.713, 354.689 187.750 C 354.941 186.787, 354.941 185.213, 354.689 184.250 C 354.438 183.287, 354.232 184.075, 354.232 186 M 292.252 187.500 C 292.263 189.700, 292.468 190.482, 292.707 189.238 C 292.946 187.994, 292.937 186.194, 292.687 185.238 C 292.437 184.282, 292.241 185.300, 292.252 187.500 M 348.232 193 C 348.232 194.925, 348.438 195.713, 348.689 194.750 C 348.941 193.787, 348.941 192.213, 348.689 191.250 C 348.438 190.287, 348.232 191.075, 348.232 193 M 228.232 196 C 228.232 197.925, 228.438 198.713, 228.689 197.750 C 228.941 196.787, 228.941 195.213, 228.689 194.250 C 228.438 193.287, 228.232 194.075, 228.232 196 M 233.252 196.500 C 233.263 198.700, 233.468 199.482, 233.707 198.238 C 233.946 196.994, 233.937 195.194, 233.687 194.238 C 233.437 193.282, 233.241 194.300, 233.252 196.500 M 210.405 210.500 C 210.406 219.300, 210.559 222.766, 210.745 218.203 C 210.930 213.639, 210.929 206.439, 210.742 202.203 C 210.555 197.966, 210.404 201.700, 210.405 210.500 M 287.370 212 C 287.370 217.775, 287.535 220.137, 287.737 217.250 C 287.939 214.363, 287.939 209.637, 287.737 206.750 C 287.535 203.863, 287.370 206.225, 287.370 212 M 204.392 216 C 204.392 223.425, 204.549 226.463, 204.742 222.750 C 204.934 219.037, 204.934 212.963, 204.742 209.250 C 204.549 205.537, 204.392 208.575, 204.392 216 M 229.328 209.500 C 229.333 213.350, 229.513 214.802, 229.730 212.728 C 229.946 210.653, 229.943 207.503, 229.722 205.728 C 229.501 203.952, 229.324 205.650, 229.328 209.500 M 234.320 210 C 234.320 213.575, 234.502 215.037, 234.723 213.250 C 234.945 211.463, 234.945 208.537, 234.723 206.750 C 234.502 204.963, 234.320 206.425, 234.320 210 M 347.252 209.500 C 347.263 211.700, 347.468 212.482, 347.707 211.238 C 347.946 209.994, 347.937 208.194, 347.687 207.238 C 347.437 206.282, 347.241 207.300, 347.252 209.500 M 229.300 232 C 229.300 235.025, 229.487 236.262, 229.716 234.750 C 229.945 233.238, 229.945 230.762, 229.716 229.250 C 229.487 227.738, 229.300 228.975, 229.300 232 M 234.286 236.500 C 234.294 239.250, 234.488 240.256, 234.718 238.736 C 234.947 237.216, 234.941 234.966, 234.704 233.736 C 234.467 232.506, 234.279 233.750, 234.286 236.500 M 172.560 241.500 C 172.874 243.150, 173.865 245.175, 174.761 246 C 176.209 247.333, 176.273 247.333, 175.330 246 C 174.746 245.175, 173.755 243.150, 173.128 241.500 L 171.988 238.500 172.560 241.500 M 179.736 244.256 L 177.971 247.500 179.986 245.139 C 181.700 243.130, 182.616 240.984, 181.750 241.006 C 181.613 241.010, 180.706 242.472, 179.736 244.256 M 142 268.364 C 142 268.639, 143.350 269.825, 145 271 C 146.650 272.175, 148 272.911, 148 272.636 C 148 272.361, 146.650 271.175, 145 270 C 143.350 268.825, 142 268.089, 142 268.364 M 140.272 280 C 140.272 282.475, 140.467 283.488, 140.706 282.250 C 140.944 281.012, 140.944 278.988, 140.706 277.750 C 140.467 276.512, 140.272 277.525, 140.272 280 M 209.252 301.500 C 209.263 303.700, 209.468 304.482, 209.707 303.238 C 209.946 301.994, 209.937 300.194, 209.687 299.238 C 209.437 298.282, 209.241 299.300, 209.252 301.500" stroke="none" fill="#43b6b5" fill-rule="evenodd"/><path d="M 274.279 115.978 C 274.676 117.549, 274.369 118.002, 269.195 123.501 C 265.549 127.376, 265.728 128.984, 269.809 129.030 C 272.125 129.057, 272.255 129.203, 270.745 130.083 C 268.354 131.475, 263.532 136, 264.439 136 C 265.160 136, 263.561 137.459, 257.315 142.498 C 255.563 143.912, 253.937 146.065, 253.701 147.284 C 253.334 149.183, 253.253 149.115, 253.136 146.809 C 253.061 145.329, 252.576 143.856, 252.059 143.536 C 251.541 143.216, 251.203 144.153, 251.309 145.618 C 251.620 149.953, 249.442 149.401, 247.991 144.778 L 246.648 140.500 246.010 144.073 C 245.659 146.039, 244.080 150.613, 242.501 154.238 C 239.712 160.640, 239.506 160.847, 235.318 161.475 C 232.946 161.831, 230.555 161.843, 230.003 161.502 C 228.753 160.729, 228.576 158.772, 231.544 178.550 C 233.206 189.621, 234.295 202.108, 234.685 214.553 C 235.576 243.004, 233.118 262.729, 226.472 280.472 C 224.624 285.407, 223.281 289.614, 223.488 289.821 C 224.294 290.627, 241.537 292.797, 242.142 292.168 C 243.291 290.971, 250.261 257.319, 251.807 245.500 L 252.591 239.500 253.796 248.568 C 254.458 253.555, 255 259.442, 255 261.651 C 255 270.240, 256.357 268.301, 263.157 250 L 267.058 239.500 266.504 247 C 265.547 259.934, 262.854 277.192, 260.537 285.237 C 259.311 289.493, 258.538 293.205, 258.820 293.487 C 259.529 294.196, 269.693 294.111, 274.247 293.359 C 277.617 292.802, 278.105 292.326, 279.104 288.620 C 280.733 282.573, 283.676 265.092, 285.183 252.500 C 287.218 235.500, 286.906 180.126, 284.678 163 C 282.385 145.366, 277.378 120.530, 275.438 117.161 C 274.596 115.697, 274.074 115.165, 274.279 115.978 M 281.003 115.132 C 281.004 115.334, 282.130 119.699, 283.505 124.831 C 290.637 151.452, 293.399 179.754, 292.695 219 C 292.156 249.051, 290.892 261.748, 286.479 281.431 C 285.131 287.443, 284.134 292.456, 284.264 292.571 C 284.607 292.876, 303.079 290.256, 303.478 289.846 C 303.899 289.413, 307.347 268.836, 309.988 251 C 311.087 243.575, 312.086 237.050, 312.207 236.500 C 312.328 235.950, 312.668 243.150, 312.963 252.500 C 313.591 272.389, 313.330 272.449, 321.646 250.500 C 324.563 242.800, 326.959 237.625, 326.969 239 C 327.002 243.283, 324.164 260.948, 321.383 273.777 C 319.919 280.530, 318.901 286.234, 319.119 286.453 C 319.677 287.010, 334.259 282.971, 335.606 281.885 C 337.610 280.271, 342.515 253.138, 345.437 227.500 C 349.257 193.994, 349.804 160.338, 346.865 139.692 C 345.551 130.468, 345.514 130.433, 331.584 125.455 L 322 122.029 321.991 124.765 C 321.980 128.219, 317.432 148.406, 316.149 150.699 C 315.366 152.097, 314.981 151.589, 314.068 147.957 C 312.086 140.079, 306.997 124.605, 305.222 121.063 C 304.140 118.904, 302.485 117.359, 300.768 116.905 C 297.616 116.072, 280.999 114.581, 281.003 115.132 M 350.357 135.664 C 353.123 144.958, 354.910 180.040, 353.839 204.016 C 352.823 226.744, 350.890 243.549, 347.037 263.140 C 345.389 271.519, 344.248 278.581, 344.500 278.833 C 345.066 279.399, 355.966 274.611, 361.828 271.221 C 367.118 268.162, 367.996 266.028, 368.014 256.185 C 368.021 251.958, 368.276 247.600, 368.579 246.500 C 368.883 245.400, 371.764 242.616, 374.982 240.312 C 381.635 235.551, 382 235.767, 382 244.457 C 382 250.726, 382.934 256, 384.044 256 C 386.652 256, 406.746 233.317, 410.354 226.300 C 412.505 222.118, 412.475 222.001, 409.250 221.996 C 405.457 221.991, 400.708 218.881, 398.135 214.718 C 396.949 212.799, 393.956 203.448, 391.484 193.938 C 386.541 174.923, 383.569 168.423, 374.171 156.074 C 369.060 149.360, 356.323 137.337, 351.655 134.822 C 350.122 133.996, 349.903 134.138, 350.357 135.664 M 220.872 167.921 C 221.898 168.555, 221.388 169.509, 218.726 171.931 C 216.805 173.678, 214.411 175.710, 213.405 176.446 C 211.859 177.576, 211.781 178.031, 212.901 179.381 C 214.398 181.184, 213.650 187.480, 211.804 188.621 C 210.698 189.305, 210.838 188.214, 212.462 183.500 C 213.145 181.517, 213.140 181.517, 211.899 183.477 C 210.995 184.904, 210.611 192.143, 210.520 209.477 C 210.411 230.174, 210.088 234.910, 208.190 243.688 C 205.421 256.494, 201.056 268.940, 196.515 276.973 C 194.582 280.394, 193 283.338, 193 283.516 C 193 283.694, 195.137 284.513, 197.750 285.337 C 201.828 286.622, 205.384 287.460, 215.318 289.479 C 217.634 289.950, 220.237 284.100, 223.541 271 C 230.495 243.421, 231.197 207.844, 225.417 175.958 C 224.054 168.436, 223.609 167.396, 221.697 167.252 C 220.164 167.137, 219.921 167.333, 220.872 167.921 M 368.831 198 C 368.649 207.075, 368.568 214.643, 368.651 214.817 C 369.061 215.683, 379 209.789, 379 208.680 C 379 206.809, 372.527 187.880, 370.708 184.433 C 369.247 181.662, 369.143 182.411, 368.831 198 M 201.016 195.246 C 200.238 197.306, 198.791 199.249, 197.801 199.563 C 196.810 199.878, 196 200.554, 196 201.067 C 196 201.580, 195.358 202, 194.573 202 C 193.789 202, 192.951 202.787, 192.713 203.750 C 192.393 205.040, 191.949 204.630, 191.021 202.189 L 189.762 198.878 187.842 200.939 C 186.786 202.073, 185.377 203, 184.711 203 C 183.802 203, 183.564 207.053, 183.757 219.250 C 184.032 236.580, 182.665 243.995, 178.750 246.410 C 174.317 249.145, 171.717 242.952, 170.209 226.063 C 169.606 219.299, 169.103 217.072, 168.492 218.456 C 167.243 221.283, 164.740 224, 163.385 224 C 162.741 224, 161.893 224.787, 161.500 225.750 C 160.843 227.358, 160.714 227.338, 159.909 225.500 C 159.312 224.136, 159.108 225.488, 159.267 229.752 C 159.395 233.190, 159.162 236.003, 158.750 236.002 C 158.338 236.001, 158 237.383, 158 239.072 C 158 240.762, 156.868 247.060, 155.485 253.067 C 153.241 262.810, 153.117 264.344, 154.337 267.264 C 156.794 273.144, 169.603 280.750, 178.793 281.786 C 187.607 282.779, 192.642 277.408, 197.848 261.454 C 202.399 247.507, 204.012 235.835, 203.912 217.574 C 203.864 208.733, 203.511 199.250, 203.128 196.500 L 202.430 191.500 201.016 195.246 M 152.070 235.750 C 152.032 236.438, 151.314 237, 150.475 237 C 149.637 237, 148.458 238.238, 147.856 239.750 C 147.254 241.262, 146.574 242, 146.344 241.390 C 146.115 240.779, 143.219 242.929, 139.911 246.166 C 136.587 249.419, 133.359 251.784, 132.697 251.451 C 132.039 251.120, 133.836 253.079, 136.691 255.806 C 145.970 264.667, 150.889 264.408, 152.917 254.952 C 154.185 249.039, 154.229 239.359, 153 236.500 C 152.527 235.400, 152.109 235.063, 152.070 235.750 M 376 268.527 C 367.856 275.260, 356.740 282.017, 346.455 286.488 C 342.091 288.385, 338.368 290.395, 338.182 290.953 C 337.996 291.512, 341.188 295.238, 345.274 299.234 C 352.628 306.425, 352.691 306.531, 351.398 309.500 C 350.679 311.150, 350.072 315.425, 350.049 319 C 349.994 327.592, 352.235 331.451, 358.204 333.047 C 360.567 333.679, 363.088 334.677, 363.806 335.266 C 365.689 336.811, 388.635 336.721, 393.200 335.151 C 397.767 333.580, 402.546 328.297, 403.940 323.277 C 406.313 314.733, 404.569 302.331, 399.405 291.024 C 396.269 284.159, 383.911 262.974, 383.102 263.076 C 382.771 263.119, 379.575 265.571, 376 268.527 M 140.684 269.380 C 139.743 271.834, 141.185 285.869, 143.017 292.085 C 144.337 296.566, 146.222 300.107, 148.918 303.169 C 152.845 307.631, 152.867 307.701, 151.539 311.584 C 150.503 314.613, 149.613 315.571, 147.611 315.815 C 144.425 316.203, 142.042 319.386, 142.746 322.315 C 143.466 325.312, 147.782 329.814, 152.032 332.001 C 162.725 337.503, 191.536 337.339, 203 331.710 C 209.754 328.393, 211.315 324.672, 210.432 314 C 210.044 309.325, 209.676 302.913, 209.614 299.750 C 209.551 296.587, 209.050 293.997, 208.500 293.994 C 204.072 293.968, 186.987 290.608, 180.500 288.488 C 169.946 285.038, 156.103 278.386, 147.808 272.779 C 143.836 270.094, 140.940 268.713, 140.684 269.380" stroke="none" fill="#064d4c" fill-rule="evenodd"/></svg>