<svg xmlns="http://www.w3.org/2000/svg" width="2531" height="735" viewBox="0 0 2531 735" version="1.1"><path d="M 427 168.938 C 417.142 170.931, 403.465 180.801, 398.669 189.381 C 397.476 191.516, 395.912 194.329, 395.194 195.634 C 392.808 199.967, 391.783 209.933, 393.003 216.937 C 395.450 230.989, 403.262 241.551, 415.782 247.734 C 423.207 251.401, 423.697 251.500, 434.453 251.500 C 444.802 251.500, 445.926 251.298, 452.241 248.307 C 460.965 244.174, 468.174 236.965, 472.307 228.241 C 475.322 221.876, 475.500 220.858, 475.500 210 C 475.500 199.311, 475.293 198.077, 472.567 192.500 C 464.287 175.561, 444.596 165.379, 427 168.938 M 424.907 192.327 C 415.282 197.408, 411.225 209.635, 415.934 219.364 C 425.742 239.624, 456.653 230.944, 454.788 208.454 C 453.913 197.907, 445.221 190, 434.500 190 C 431.001 190, 427.881 190.757, 424.907 192.327 M 83.196 518.058 C 78.397 518.909, 75.276 520.067, 65.297 524.697 C 54.984 529.482, 42.569 541.412, 37.628 551.284 C 32.712 561.108, 30.927 568.733, 30.896 580.048 C 30.864 591.647, 32.074 597.066, 37.026 607.510 C 44.070 622.363, 57.369 634.026, 73.722 639.689 C 84.358 643.373, 100.924 643.633, 111.500 640.282 C 126.776 635.442, 141.343 623.575, 148.163 610.414 C 158.770 589.945, 157.503 562.829, 145.083 544.524 C 141.488 539.226, 131.641 529.927, 125.990 526.494 C 114.189 519.325, 96.124 515.763, 83.196 518.058 M 827 518.594 C 806.315 522.345, 790.525 533.808, 781.108 551.909 C 763.373 585.998, 779.996 626.970, 816.722 639.689 C 827.358 643.373, 843.924 643.633, 854.500 640.282 C 882.305 631.472, 900.400 605.427, 898.730 576.619 C 897.807 560.693, 892.106 547.744, 881 536.355 C 869.654 524.719, 856.636 519.187, 839 518.507 C 833.775 518.305, 828.375 518.344, 827 518.594 M 90.500 559.491 C 89.950 559.675, 88.236 560.105, 86.691 560.446 C 82.797 561.308, 75.338 568.446, 73.955 572.635 C 70.719 582.441, 74.253 592.720, 82.527 597.569 C 90.794 602.413, 99.833 601.720, 106.670 595.716 C 116.419 587.157, 116.240 572.289, 106.290 564.087 C 102 560.551, 94.162 558.270, 90.500 559.491 M 831.500 559.929 C 821.187 562.418, 814.058 573.382, 815.967 583.821 C 817.134 590.202, 821.098 595.372, 827.129 598.377 C 835.250 602.424, 843.089 601.495, 849.684 595.704 C 862.195 584.719, 857.424 564.114, 841.436 560.088 C 836.667 558.887, 835.868 558.875, 831.500 559.929" stroke="none" fill="#0f70b7" fill-rule="evenodd"/><path d="M 462.500 346.421 C 456.463 349.124, 453.337 354.122, 441.186 380.500 C 434.600 394.800, 424.294 416.850, 418.285 429.500 C 412.276 442.150, 398.841 471.058, 388.430 493.740 C 378.018 516.422, 369.268 534.984, 368.985 534.990 C 368.702 534.995, 361.052 521.408, 351.985 504.796 C 342.918 488.183, 334.154 473.038, 332.509 471.139 C 324.748 462.182, 311.096 461.685, 302.458 470.045 C 300.785 471.664, 287.960 492.325, 273.958 515.958 L 248.500 558.926 200.345 558.963 L 152.190 559 153.720 564.750 C 155.698 572.182, 155.698 587.818, 153.720 595.250 L 152.190 601 209.145 601 C 271.199 601, 268.827 601.205, 275.156 595.289 C 276.616 593.924, 286.291 578.462, 296.656 560.929 C 307.020 543.396, 315.756 529.040, 316.068 529.026 C 316.381 529.012, 324.857 544.058, 334.905 562.461 C 348.034 586.511, 354.232 596.880, 356.940 599.327 C 364.153 605.844, 374.672 606.271, 383.155 600.393 C 387.991 597.042, 386.546 599.982, 433.056 498.819 C 451.435 458.845, 466.544 426.220, 466.631 426.319 C 466.719 426.419, 486.238 492.650, 510.006 573.500 C 533.774 654.350, 553.808 721.625, 554.525 723 C 556.353 726.504, 561.970 731.677, 565.315 732.939 C 572.379 735.602, 582.274 733.718, 587.806 728.656 C 589.075 727.495, 607.253 698.298, 628.201 663.773 L 666.290 601 721.645 601 C 752.090 601, 777 600.887, 777 600.750 C 777 600.612, 776.333 597.349, 775.517 593.500 C 774.702 589.650, 774.035 583.575, 774.035 580 C 774.035 576.425, 774.702 570.350, 775.517 566.500 C 776.333 562.651, 777 559.388, 777 559.250 C 777 559.113, 749.182 559, 715.182 559 C 646.386 559, 645.952 559.037, 639.742 565.410 C 637.959 567.240, 623.941 589.496, 608.592 614.869 C 593.243 640.241, 580.416 661, 580.088 661 C 579.760 661, 559.955 594.513, 536.077 513.250 C 512.198 431.987, 491.883 363.094, 490.933 360.153 C 489.009 354.200, 484.168 348.477, 479.282 346.381 C 475.226 344.640, 466.431 344.661, 462.500 346.421" stroke="none" fill="#009fe3" fill-rule="evenodd"/><path d="M 222 89.093 C 190.244 92.330, 156.332 103.759, 129.005 120.434 C 100.318 137.939, 72.159 165.318, 52.775 194.554 C 25.482 235.717, 9.217 283.488, 2.389 342.538 C -0.082 363.902, -0.108 408.020, 2.340 424.500 C 7.447 458.880, 14.934 480.865, 33.727 516.662 L 45.361 538.823 50.930 534.036 C 57.551 528.346, 63.399 524.608, 69.231 522.337 C 71.579 521.423, 73.650 520.561, 73.833 520.421 C 74.016 520.282, 69.914 512.143, 64.717 502.334 C 50.028 474.607, 44.342 460.186, 39.591 438.608 C 35.401 419.573, 34.508 409.951, 34.569 384.500 C 34.630 359.201, 35.663 346.458, 39.520 323.435 C 53.804 238.185, 98.413 172.039, 162.607 140.925 C 191.711 126.819, 226.394 120.206, 257.329 122.863 C 306.638 127.099, 350.493 148.035, 389.222 185.830 C 392.919 189.438, 396.108 192.190, 396.310 191.945 C 396.511 191.700, 398.093 189.403, 399.824 186.840 C 403.798 180.957, 410.132 175.502, 416.250 172.693 C 418.863 171.493, 421 170.215, 421 169.853 C 421 169.491, 415.712 164.143, 409.250 157.970 C 370.955 121.387, 324.688 97.979, 276 90.554 C 262.977 88.568, 234.668 87.802, 222 89.093 M 658 109.044 C 586.638 115.469, 521.581 156.886, 477.431 224 C 472.908 230.875, 466.680 241.089, 463.591 246.697 C 450.694 270.109, 450.542 270.582, 423.357 371.828 C 409.402 423.798, 398.164 466.497, 398.382 466.715 C 399.462 467.795, 417.644 430.728, 440.425 381 C 450.844 358.258, 453.700 352.883, 456.937 349.931 C 460.782 346.423, 466.528 344, 471 344 C 478.415 344, 487.635 350.095, 490.254 356.727 C 491.074 358.802, 511.436 427.550, 535.503 509.500 C 559.570 591.450, 579.585 658.859, 579.980 659.299 C 580.374 659.738, 593.334 639.263, 608.779 613.799 C 624.224 588.334, 638.129 566.286, 639.680 564.803 C 645.896 558.858, 644.096 559, 713.439 559 L 776.941 559 779.540 553.507 C 786.969 537.804, 800.756 525.758, 817.500 520.343 C 828.066 516.925, 842.972 516.717, 853.500 519.839 C 861.654 522.258, 860.208 523.218, 868.497 509.878 C 885.056 483.230, 895.853 453.530, 900.681 421.353 C 902.885 406.658, 903.156 363.757, 901.159 345.500 C 894.379 283.512, 876.108 234.028, 844.683 192.544 C 836.876 182.239, 818.784 163.622, 808.500 155.311 C 765.597 120.640, 712.048 104.178, 658 109.044" stroke="none" fill="#991b79" fill-rule="evenodd"/><path d="M 1442 291.500 L 1442 506 1473.459 506 L 1504.918 506 1505.224 429.750 L 1505.530 353.500 1508.277 344.693 C 1516.314 318.927, 1533.111 299.801, 1556.112 290.226 C 1575.352 282.216, 1599.178 283.844, 1612.063 294.050 C 1617.562 298.405, 1623.508 307.668, 1626.015 315.784 C 1630.881 331.538, 1631.279 339.160, 1631.726 425.250 L 1632.146 506 1663.638 506 L 1695.131 506 1694.716 421.250 C 1694.269 329.948, 1694.024 325.127, 1688.598 301.053 C 1683.753 279.555, 1677.108 266.882, 1663.816 253.791 C 1647.170 237.396, 1622.416 229.941, 1589.063 231.277 C 1567.146 232.155, 1550.062 237.616, 1533.576 249.012 C 1524.076 255.580, 1511.591 268.558, 1506.137 277.534 L 1501.905 284.500 1502.457 277 C 1502.760 272.875, 1503.271 226.188, 1503.593 173.250 L 1504.178 77 1473.089 77 L 1442 77 1442 291.500 M 1151.500 232.076 C 1105.107 238.422, 1067.099 264.910, 1047.048 304.867 C 1042.585 313.761, 1036.441 332.715, 1034.364 344 C 1031.713 358.395, 1031.922 386.036, 1034.791 400.524 C 1041.742 435.626, 1059.258 464.416, 1085.994 484.679 C 1096.306 492.495, 1117.227 502.980, 1129.427 506.446 C 1145.072 510.891, 1158.315 512.308, 1178.500 511.697 C 1204.347 510.913, 1219.318 507.390, 1239.387 497.368 C 1264.765 484.695, 1285.378 464.065, 1298.287 438.419 C 1318.607 398.051, 1318.588 345.178, 1298.240 304.515 C 1291.353 290.752, 1284.648 281.464, 1273.593 270.376 C 1254.577 251.302, 1232.297 239.434, 1205.036 233.855 C 1193.894 231.576, 1162.731 230.540, 1151.500 232.076 M 1915.500 231.634 C 1877.578 235.700, 1848.008 252.212, 1835.980 276.039 C 1830.672 286.555, 1828.670 295.954, 1828.748 310 C 1828.874 332.549, 1834.379 346.440, 1848.972 361.023 C 1864.588 376.630, 1883.910 387.523, 1919 400.502 C 1945.269 410.218, 1958.510 416.608, 1963.254 421.859 C 1970.316 429.677, 1970.767 441.249, 1964.340 449.765 C 1953.082 464.681, 1907.930 465.846, 1872.500 452.134 C 1865.318 449.355, 1853.931 443.379, 1846.913 438.706 L 1844.326 436.984 1833.652 462.242 C 1821.356 491.338, 1821.146 487.677, 1835.500 494.550 C 1870.647 511.380, 1931.612 517.070, 1967.847 506.903 C 1990.280 500.608, 2009.257 488.324, 2019.247 473.630 C 2033.074 453.292, 2035.027 421.745, 2023.865 399 C 2013.744 378.373, 1988.056 360.692, 1947 346.091 C 1901.018 329.739, 1892.802 323.821, 1892.647 306.943 C 1892.504 291.346, 1903.456 283.727, 1928 282.349 C 1951.131 281.050, 1978.005 287.708, 1990.921 297.938 L 1994.728 300.953 2006.019 276.046 C 2012.229 262.348, 2017.326 250.771, 2017.345 250.320 C 2017.413 248.765, 2000.910 241.247, 1991.716 238.646 C 1974.551 233.788, 1960.134 231.836, 1939 231.508 C 1928.275 231.341, 1917.700 231.398, 1915.500 231.634 M 2249.204 232.173 C 2219.670 235.878, 2194.301 248.402, 2174.635 268.986 C 2157.187 287.249, 2145.980 310.350, 2140.861 338.602 C 2138.031 354.220, 2137.719 385.732, 2140.257 399.500 C 2149.744 450.957, 2182.275 489.739, 2229.066 505.375 C 2244.176 510.424, 2252.027 511.506, 2273 511.427 C 2290.767 511.360, 2293.369 511.120, 2302.277 508.727 C 2326.740 502.157, 2351.711 485.345, 2363.039 467.818 L 2366.741 462.091 2367.370 466.685 C 2367.717 469.212, 2368 479.091, 2368 488.640 L 2368 506 2398.500 506 L 2429 506 2429 372 L 2429 238 2398.652 238 L 2368.304 238 2367.652 248.656 C 2367.293 254.516, 2367 264.073, 2367 269.892 L 2367 280.473 2363.417 275.153 C 2358.694 268.140, 2348.304 258.141, 2339.835 252.459 C 2324.974 242.488, 2304.201 234.386, 2287.566 232.072 C 2278.547 230.818, 2259.611 230.868, 2249.204 232.173 M 1160.381 283.932 C 1137.224 287.630, 1119.313 302.083, 1108.057 326.156 C 1096.203 351.508, 1095.393 386.277, 1106.054 412.130 C 1112.309 427.299, 1125.284 442.755, 1138.077 450.276 C 1163.832 465.416, 1199.446 462.369, 1220.087 443.259 C 1230.966 433.187, 1239.980 417.168, 1244.217 400.377 C 1246.137 392.770, 1246.458 388.853, 1246.458 373 C 1246.458 357.147, 1246.137 353.230, 1244.217 345.623 C 1236.521 315.125, 1215.835 292.096, 1190.253 285.546 C 1182.758 283.627, 1167.466 282.801, 1160.381 283.932 M 2263.358 287.548 C 2242.205 292.190, 2225.903 305.211, 2215.941 325.421 C 2207.909 341.719, 2206.648 347.924, 2206.579 371.500 C 2206.528 389.024, 2206.797 392.590, 2208.754 400.301 C 2216.260 429.885, 2234.076 449.112, 2260.500 456.143 C 2272.346 459.296, 2293.431 459.298, 2304.500 456.148 C 2317.838 452.352, 2327.254 446.746, 2337.500 436.500 C 2354.916 419.085, 2361.014 402.770, 2360.987 373.662 C 2360.959 343.730, 2352.925 323.486, 2334.016 305.697 C 2324.783 297.011, 2311.991 290.135, 2300.303 287.576 C 2291.514 285.652, 2272.069 285.637, 2263.358 287.548 M 1354 585 L 1354 613 1358.500 613 L 1363 613 1363.006 604.250 C 1363.013 592.735, 1364.264 588.419, 1368.311 585.952 C 1372.360 583.483, 1375.219 583.480, 1377.448 585.943 C 1378.856 587.498, 1379.314 590.389, 1379.749 600.443 L 1380.291 613 1384.787 613 L 1389.284 613 1388.777 599.711 C 1388.069 581.159, 1385.622 577, 1375.417 577 C 1371.602 577, 1369.342 577.636, 1366.640 579.470 L 1363 581.940 1363 569.470 L 1363 557 1358.500 557 L 1354 557 1354 585 M 1511 585 L 1511 613 1515.500 613 L 1520 613 1520 585 L 1520 557 1515.500 557 L 1511 557 1511 585 M 1573 585 L 1573 613 1577.500 613 L 1582 613 1582.006 604.250 C 1582.013 592.735, 1583.264 588.419, 1587.311 585.952 C 1591.360 583.483, 1594.219 583.480, 1596.448 585.943 C 1597.856 587.498, 1598.314 590.389, 1598.749 600.443 L 1599.291 613 1603.787 613 L 1608.284 613 1607.777 599.711 C 1607.069 581.159, 1604.622 577, 1594.417 577 C 1590.602 577, 1588.342 577.636, 1585.640 579.470 L 1582 581.940 1582 569.470 L 1582 557 1577.500 557 L 1573 557 1573 585 M 2137 585 L 2137 613 2141.500 613 L 2146 613 2146 585 L 2146 557 2141.500 557 L 2137 557 2137 585 M 1180.333 562.615 C 1178.798 564.957, 1178.773 565.506, 1180.091 567.865 C 1182.955 572.993, 1191 571.249, 1191 565.500 C 1191 559.913, 1183.442 557.869, 1180.333 562.615 M 1299.333 562.615 C 1297.798 564.957, 1297.773 565.506, 1299.091 567.865 C 1301.955 572.993, 1310 571.249, 1310 565.500 C 1310 559.913, 1302.442 557.869, 1299.333 562.615 M 1824.333 562.615 C 1822.798 564.957, 1822.773 565.506, 1824.091 567.865 C 1826.955 572.993, 1835 571.249, 1835 565.500 C 1835 559.913, 1827.442 557.869, 1824.333 562.615 M 2164.333 562.615 C 2162.798 564.957, 2162.773 565.506, 2164.091 567.865 C 2166.955 572.993, 2175 571.249, 2175 565.500 C 2175 559.913, 2167.442 557.869, 2164.333 562.615 M 2326.333 562.615 C 2324.798 564.957, 2324.773 565.506, 2326.091 567.865 C 2328.955 572.993, 2337 571.249, 2337 565.500 C 2337 559.913, 2329.442 557.869, 2326.333 562.615 M 1543.750 562.716 C 1541.034 563.128, 1541 563.225, 1541 570.566 L 1541 578 1538 578 C 1535.238 578, 1535 578.278, 1535 581.500 C 1535 584.722, 1535.238 585, 1538 585 L 1541 585 1541 599 L 1541 613 1545.500 613 L 1550 613 1550 599.057 L 1550 585.115 1554.250 584.807 C 1558.239 584.519, 1558.519 584.301, 1558.813 581.250 C 1559.126 578.012, 1559.109 578, 1554.563 578 L 1550 578 1550 570 C 1550 561.304, 1550.353 561.716, 1543.750 562.716 M 2297.750 562.716 C 2295.034 563.128, 2295 563.225, 2295 570.566 L 2295 578 2292 578 C 2289.238 578, 2289 578.278, 2289 581.500 C 2289 584.722, 2289.238 585, 2292 585 L 2295 585 2295 599 L 2295 613 2299.500 613 L 2304 613 2304 599.057 L 2304 585.115 2308.250 584.807 C 2312.239 584.519, 2312.519 584.301, 2312.813 581.250 C 2313.126 578.012, 2313.109 578, 2308.563 578 L 2304 578 2304 570 C 2304 561.304, 2304.353 561.716, 2297.750 562.716 M 1060.500 578.358 C 1051.607 582.469, 1047.611 594.143, 1051.880 603.541 C 1055.475 611.457, 1061.938 614.741, 1072.014 613.773 C 1081.494 612.862, 1087.416 605.836, 1087.416 595.500 C 1087.416 588.367, 1085.500 584.246, 1080.361 580.326 C 1077.375 578.049, 1075.533 577.498, 1070.110 577.261 C 1066 577.081, 1062.365 577.496, 1060.500 578.358 M 1116.640 579.470 C 1113.188 581.812, 1113 581.838, 1113 579.970 C 1113 578.302, 1112.310 578, 1108.500 578 L 1104 578 1104 595.500 L 1104 613 1108.500 613 L 1113 613 1113 603.468 C 1113 597.681, 1113.536 592.654, 1114.364 590.672 C 1116.793 584.859, 1123.930 582.072, 1127.429 585.571 C 1128.695 586.838, 1129 589.652, 1129 600.071 L 1129 613 1133.392 613 L 1137.784 613 1138.177 601.750 C 1138.595 589.800, 1139.533 586.990, 1143.743 585.071 C 1147.037 583.570, 1149.594 583.737, 1151.429 585.571 C 1152.695 586.838, 1153 589.652, 1153 600.071 L 1153 613 1158.128 613 L 1163.256 613 1162.802 599.250 C 1162.175 580.252, 1160.171 577, 1149.092 577 C 1145.551 577, 1143.261 577.691, 1140.427 579.614 C 1138.027 581.243, 1136.433 581.800, 1136.198 581.093 C 1135.498 578.993, 1130.137 577, 1125.189 577 C 1121.617 577, 1119.288 577.673, 1116.640 579.470 M 1222.500 578.155 C 1221.400 578.756, 1219.938 579.954, 1219.250 580.815 C 1218.154 582.190, 1218 582.113, 1218 580.191 C 1218 578.261, 1217.464 578, 1213.500 578 L 1209 578 1209 595.500 L 1209 613 1213.500 613 L 1218 613 1218 602.056 C 1218 591.953, 1218.184 590.898, 1220.394 588.328 C 1222.289 586.125, 1223.643 585.545, 1226.894 585.545 C 1230.685 585.545, 1231 585.339, 1231 582.855 C 1231 581.374, 1231.273 579.452, 1231.607 578.582 C 1232.097 577.305, 1231.470 577.006, 1228.357 577.030 C 1226.236 577.047, 1223.600 577.553, 1222.500 578.155 M 1253 577.722 C 1241.659 581.983, 1238.281 598.915, 1246.886 608.373 C 1252.133 614.141, 1261.351 615.704, 1268.265 611.998 C 1271.365 610.336, 1272 610.251, 1272 611.498 C 1272 612.611, 1273.164 613, 1276.500 613 L 1281 613 1281 595.500 L 1281 578 1276.500 578 C 1273.164 578, 1272 578.389, 1272 579.502 C 1272 580.749, 1271.365 580.664, 1268.265 579.002 C 1264.653 577.066, 1256.552 576.387, 1253 577.722 M 1414.481 578.394 C 1401.243 584.162, 1400.537 606.252, 1413.405 612.096 C 1418.427 614.377, 1428.632 614.598, 1433.575 612.533 L 1437.086 611.066 1435.491 607.982 C 1434.166 605.421, 1433.523 605.034, 1431.698 605.699 C 1430.489 606.140, 1426.872 606.500, 1423.661 606.500 C 1418.731 606.500, 1417.524 606.133, 1415.911 604.139 C 1412.083 599.410, 1412.938 599, 1426.637 599 L 1439.274 599 1438.752 592.500 C 1438.168 585.223, 1436.396 581.822, 1431.696 578.956 C 1427.927 576.658, 1419.124 576.370, 1414.481 578.394 M 1464 577.722 C 1452.659 581.983, 1449.281 598.915, 1457.886 608.373 C 1463.133 614.141, 1472.351 615.704, 1479.265 611.998 C 1482.365 610.336, 1483 610.251, 1483 611.498 C 1483 612.611, 1484.164 613, 1487.500 613 L 1492 613 1492 595.500 L 1492 578 1487.500 578 C 1484.164 578, 1483 578.389, 1483 579.502 C 1483 580.749, 1482.365 580.664, 1479.265 579.002 C 1475.653 577.066, 1467.552 576.387, 1464 577.722 M 1656.329 578.406 C 1652.438 580.162, 1651 582.683, 1651 587.747 C 1651 592.725, 1654.450 596.178, 1662.565 599.321 C 1668.542 601.636, 1670.646 604.342, 1667.848 606.115 C 1665.746 607.447, 1660.296 607.150, 1656.314 605.487 C 1654.323 604.655, 1652.628 604.092, 1652.549 604.237 C 1651.166 606.764, 1650.098 610.350, 1650.523 611.038 C 1651.424 612.494, 1658.133 613.988, 1663.800 613.994 C 1672.596 614.004, 1678 609.871, 1678 603.136 C 1678 598.776, 1673.675 594.631, 1666 591.636 C 1661.916 590.042, 1660.419 588.921, 1660.185 587.280 C 1659.692 583.818, 1664.064 583.138, 1671.623 585.503 C 1673.375 586.051, 1673.945 585.595, 1674.886 582.897 C 1675.679 580.622, 1675.708 579.308, 1674.981 578.581 C 1673.295 576.895, 1659.954 576.769, 1656.329 578.406 M 1702.481 578.394 C 1689.243 584.162, 1688.537 606.252, 1701.405 612.096 C 1706.427 614.377, 1716.632 614.598, 1721.575 612.533 L 1725.086 611.066 1723.491 607.982 C 1722.166 605.421, 1721.523 605.034, 1719.698 605.699 C 1718.489 606.140, 1714.872 606.500, 1711.661 606.500 C 1706.731 606.500, 1705.524 606.133, 1703.911 604.139 C 1700.083 599.410, 1700.938 599, 1714.637 599 L 1727.274 599 1726.752 592.500 C 1726.168 585.223, 1724.396 581.822, 1719.696 578.956 C 1715.927 576.658, 1707.124 576.370, 1702.481 578.394 M 1755.500 578.155 C 1754.400 578.756, 1752.938 579.954, 1752.250 580.815 C 1751.154 582.190, 1751 582.113, 1751 580.191 C 1751 578.261, 1750.464 578, 1746.500 578 L 1742 578 1742 595.500 L 1742 613 1746.500 613 L 1751 613 1751 602.056 C 1751 591.953, 1751.184 590.898, 1753.394 588.328 C 1755.289 586.125, 1756.643 585.545, 1759.894 585.545 C 1763.685 585.545, 1764 585.339, 1764 582.855 C 1764 581.374, 1764.273 579.452, 1764.607 578.582 C 1765.097 577.305, 1764.470 577.006, 1761.357 577.030 C 1759.236 577.047, 1756.600 577.553, 1755.500 578.155 M 1859.575 579.266 C 1847.144 586.340, 1848.895 607.849, 1862.315 612.933 C 1866.324 614.452, 1874.461 614.252, 1878.575 612.533 L 1882.086 611.066 1880.475 607.952 C 1879.294 605.668, 1878.417 605.022, 1877.182 605.529 C 1876.257 605.910, 1873.609 606.452, 1871.298 606.735 C 1867.601 607.187, 1866.729 606.882, 1864.048 604.202 C 1861.369 601.523, 1861 600.468, 1861 595.500 C 1861 590.584, 1861.382 589.465, 1863.923 586.923 C 1867.228 583.618, 1871.282 583.108, 1874.779 585.558 C 1877.406 587.397, 1878.482 586.902, 1880.550 582.903 C 1882.080 579.945, 1882.072 579.928, 1878.575 578.467 C 1873.202 576.222, 1864.265 576.598, 1859.575 579.266 M 1904.481 578.394 C 1891.243 584.162, 1890.537 606.252, 1903.405 612.096 C 1908.427 614.377, 1918.632 614.598, 1923.575 612.533 L 1927.086 611.066 1925.491 607.982 C 1924.166 605.421, 1923.523 605.034, 1921.698 605.699 C 1920.489 606.140, 1916.872 606.500, 1913.661 606.500 C 1908.731 606.500, 1907.524 606.133, 1905.911 604.139 C 1902.083 599.410, 1902.938 599, 1916.637 599 L 1929.274 599 1928.752 592.500 C 1928.168 585.223, 1926.396 581.822, 1921.696 578.956 C 1917.927 576.658, 1909.124 576.370, 1904.481 578.394 M 1981 577.722 C 1969.659 581.983, 1966.281 598.915, 1974.886 608.373 C 1980.133 614.141, 1989.351 615.704, 1996.265 611.998 C 1999.365 610.336, 2000 610.251, 2000 611.498 C 2000 612.611, 2001.164 613, 2004.500 613 L 2009 613 2009 595.500 L 2009 578 2004.500 578 C 2001.164 578, 2000 578.389, 2000 579.502 C 2000 580.749, 1999.365 580.664, 1996.265 579.002 C 1992.653 577.066, 1984.552 576.387, 1981 577.722 M 2039.640 579.470 C 2036.188 581.812, 2036 581.838, 2036 579.970 C 2036 578.302, 2035.310 578, 2031.500 578 L 2027 578 2027 604.500 L 2027 631 2031.500 631 L 2036 631 2036 620.515 L 2036 610.029 2039.250 612.011 C 2043.833 614.805, 2052.258 614.676, 2057.412 611.734 C 2066.510 606.538, 2068.850 590.119, 2061.627 582.155 C 2056.348 576.335, 2046.103 575.084, 2039.640 579.470 M 2093.640 579.470 C 2090.188 581.812, 2090 581.838, 2090 579.970 C 2090 578.302, 2089.310 578, 2085.500 578 L 2081 578 2081 604.500 L 2081 631 2085.500 631 L 2090 631 2090 620.515 L 2090 610.029 2093.250 612.011 C 2097.833 614.805, 2106.258 614.676, 2111.412 611.734 C 2120.510 606.538, 2122.850 590.119, 2115.627 582.155 C 2110.348 576.335, 2100.103 575.084, 2093.640 579.470 M 2199.575 579.266 C 2187.144 586.340, 2188.895 607.849, 2202.315 612.933 C 2206.324 614.452, 2214.461 614.252, 2218.575 612.533 L 2222.086 611.066 2220.475 607.952 C 2219.294 605.668, 2218.417 605.022, 2217.182 605.529 C 2216.257 605.910, 2213.609 606.452, 2211.298 606.735 C 2207.601 607.187, 2206.729 606.882, 2204.048 604.202 C 2201.369 601.523, 2201 600.468, 2201 595.500 C 2201 590.584, 2201.382 589.465, 2203.923 586.923 C 2207.228 583.618, 2211.282 583.108, 2214.779 585.558 C 2217.406 587.397, 2218.482 586.902, 2220.550 582.903 C 2222.080 579.945, 2222.072 579.928, 2218.575 578.467 C 2213.202 576.222, 2204.265 576.598, 2199.575 579.266 M 2246 577.722 C 2234.659 581.983, 2231.281 598.915, 2239.886 608.373 C 2245.133 614.141, 2254.351 615.704, 2261.265 611.998 C 2264.365 610.336, 2265 610.251, 2265 611.498 C 2265 612.611, 2266.164 613, 2269.500 613 L 2274 613 2274 595.500 L 2274 578 2269.500 578 C 2266.164 578, 2265 578.389, 2265 579.502 C 2265 580.749, 2264.365 580.664, 2261.265 579.002 C 2257.653 577.066, 2249.552 576.387, 2246 577.722 M 2362.500 578.358 C 2353.607 582.469, 2349.611 594.143, 2353.880 603.541 C 2357.475 611.457, 2363.938 614.741, 2374.014 613.773 C 2383.494 612.862, 2389.416 605.836, 2389.416 595.500 C 2389.416 588.367, 2387.500 584.246, 2382.361 580.326 C 2379.375 578.049, 2377.533 577.498, 2372.110 577.261 C 2368 577.081, 2364.365 577.496, 2362.500 578.358 M 2418.640 579.470 C 2415.188 581.812, 2415 581.838, 2415 579.970 C 2415 578.302, 2414.310 578, 2410.500 578 L 2406 578 2406 595.500 L 2406 613 2410.500 613 L 2415 613 2415 602.648 C 2415 593.526, 2415.271 591.892, 2417.284 588.898 C 2418.860 586.552, 2420.756 585.204, 2423.407 584.543 C 2426.833 583.690, 2427.450 583.837, 2429.124 585.904 C 2430.733 587.892, 2431 589.983, 2431 600.611 L 2431 613 2435.500 613 L 2440 613 2439.998 599.750 C 2439.996 581.139, 2437.638 577.049, 2426.890 577.015 C 2423.618 577.004, 2421.222 577.717, 2418.640 579.470 M 1181 595.500 L 1181 613 1185.500 613 L 1190 613 1190 595.500 L 1190 578 1185.500 578 L 1181 578 1181 595.500 M 1300 595.500 L 1300 613 1304.500 613 L 1309 613 1309 595.500 L 1309 578 1304.500 578 L 1300 578 1300 595.500 M 1773.031 578.750 C 1773.114 580.724, 1791.016 612.533, 1792.174 612.763 C 1792.922 612.912, 1795.075 610.082, 1797.116 606.263 C 1799.105 602.544, 1803.316 594.637, 1806.474 588.694 L 1812.215 577.888 1806.892 578.194 L 1801.568 578.500 1797.009 588.556 L 1792.449 598.612 1787.575 588.306 L 1782.700 578 1777.850 578 C 1775.182 578, 1773.014 578.337, 1773.031 578.750 M 1825 595.500 L 1825 613 1829.500 613 L 1834 613 1834 595.500 L 1834 578 1829.500 578 L 1825 578 1825 595.500 M 2165 595.500 L 2165 613 2169.500 613 L 2174 613 2174 595.500 L 2174 578 2169.500 578 L 2165 578 2165 595.500 M 2327 595.500 L 2327 613 2331.500 613 L 2336 613 2336 595.500 L 2336 578 2331.500 578 L 2327 578 2327 595.500 M 1063.669 586.045 C 1058.268 590.294, 1058.262 600.701, 1063.659 604.946 C 1067.416 607.902, 1071.568 607.586, 1075.077 604.077 C 1077.595 601.559, 1078 600.396, 1078 595.683 C 1078 591.025, 1077.568 589.750, 1075.099 587.106 C 1071.638 583.401, 1067.517 583.019, 1063.669 586.045 M 1254.923 586.923 C 1252.382 589.465, 1252 590.584, 1252 595.500 C 1252 600.416, 1252.382 601.535, 1254.923 604.077 C 1257.087 606.241, 1258.795 607, 1261.500 607 C 1264.205 607, 1265.913 606.241, 1268.077 604.077 C 1270.550 601.604, 1271 600.362, 1271 596.011 C 1271 589.838, 1269.899 587.516, 1266.020 585.510 C 1261.569 583.209, 1258.210 583.636, 1254.923 586.923 M 1416.455 586.455 C 1415.105 587.805, 1414 589.830, 1414 590.955 C 1414 592.845, 1414.607 593, 1422 593 C 1429.867 593, 1430 592.958, 1430 590.500 C 1430 584.312, 1421.219 581.690, 1416.455 586.455 M 1465.923 586.923 C 1463.382 589.465, 1463 590.584, 1463 595.500 C 1463 600.416, 1463.382 601.535, 1465.923 604.077 C 1468.087 606.241, 1469.795 607, 1472.500 607 C 1475.205 607, 1476.913 606.241, 1479.077 604.077 C 1481.550 601.604, 1482 600.362, 1482 596.011 C 1482 589.838, 1480.899 587.516, 1477.020 585.510 C 1472.569 583.209, 1469.210 583.636, 1465.923 586.923 M 1704.455 586.455 C 1703.105 587.805, 1702 589.830, 1702 590.955 C 1702 592.845, 1702.607 593, 1710 593 C 1717.867 593, 1718 592.958, 1718 590.500 C 1718 584.312, 1709.219 581.690, 1704.455 586.455 M 1906.455 586.455 C 1905.105 587.805, 1904 589.830, 1904 590.955 C 1904 592.845, 1904.607 593, 1912 593 C 1919.867 593, 1920 592.958, 1920 590.500 C 1920 584.312, 1911.219 581.690, 1906.455 586.455 M 1982.923 586.923 C 1980.382 589.465, 1980 590.584, 1980 595.500 C 1980 600.416, 1980.382 601.535, 1982.923 604.077 C 1985.087 606.241, 1986.795 607, 1989.500 607 C 1992.205 607, 1993.913 606.241, 1996.077 604.077 C 1998.550 601.604, 1999 600.362, 1999 596.011 C 1999 589.838, 1997.899 587.516, 1994.020 585.510 C 1989.569 583.209, 1986.210 583.636, 1982.923 586.923 M 2042.357 584.992 C 2038.892 586.390, 2037 590.026, 2037 595.288 C 2037 601.164, 2038.143 603.506, 2041.980 605.490 C 2048.106 608.657, 2054.083 605.981, 2055.945 599.236 C 2058.640 589.476, 2051.025 581.494, 2042.357 584.992 M 2096.357 584.992 C 2092.892 586.390, 2091 590.026, 2091 595.288 C 2091 601.164, 2092.143 603.506, 2095.980 605.490 C 2102.106 608.657, 2108.083 605.981, 2109.945 599.236 C 2112.640 589.476, 2105.025 581.494, 2096.357 584.992 M 2247.923 586.923 C 2245.382 589.465, 2245 590.584, 2245 595.500 C 2245 600.416, 2245.382 601.535, 2247.923 604.077 C 2250.087 606.241, 2251.795 607, 2254.500 607 C 2257.205 607, 2258.913 606.241, 2261.077 604.077 C 2263.550 601.604, 2264 600.362, 2264 596.011 C 2264 589.838, 2262.899 587.516, 2259.020 585.510 C 2254.569 583.209, 2251.210 583.636, 2247.923 586.923 M 2365.669 586.045 C 2360.268 590.294, 2360.262 600.701, 2365.659 604.946 C 2369.416 607.902, 2373.568 607.586, 2377.077 604.077 C 2379.595 601.559, 2380 600.396, 2380 595.683 C 2380 591.025, 2379.568 589.750, 2377.099 587.106 C 2373.638 583.401, 2369.517 583.019, 2365.669 586.045" stroke="none" fill="#4d4b4c" fill-rule="evenodd"/><path d="M 425 192.249 C 409.488 200.538, 410.802 222.590, 427.218 229.447 C 439.877 234.735, 454.902 224.451, 454.978 210.446 C 455.009 204.666, 450.825 196.844, 445.861 193.404 C 440.041 189.370, 431.293 188.886, 425 192.249 M 87.728 560.305 C 82.589 561.934, 77.401 566.294, 74.998 571.005 C 72.659 575.589, 72.360 583.535, 74.347 588.282 C 77.036 594.706, 86.423 600.974, 93.384 600.994 C 103.808 601.025, 113.971 590.622, 113.994 579.899 C 114.022 566.926, 99.952 556.430, 87.728 560.305 M 830.728 560.305 C 825.589 561.934, 820.401 566.294, 817.998 571.005 C 815.659 575.589, 815.360 583.535, 817.347 588.282 C 820.036 594.706, 829.423 600.974, 836.384 600.994 C 846.808 601.025, 856.971 590.622, 856.994 579.899 C 857.022 566.926, 842.952 556.430, 830.728 560.305" stroke="none" fill="#f9fafb" fill-rule="evenodd"/><path d="" stroke="none" fill="#624270" fill-rule="evenodd"/></svg>